<mxfile host="65bd71144e" scale="1" border="20">
    <diagram id="pgu1oncw9l5pjFsIsTE7" name="第 1 页">
        <mxGraphModel dx="1074" dy="534" grid="1" gridSize="10" guides="1" tooltips="1" connect="1" arrows="1" fold="1" page="1" pageScale="1" pageWidth="827" pageHeight="1169" background="#333333" math="0" shadow="0">
            <root>
                <mxCell id="0"/>
                <mxCell id="1" parent="0"/>
                <mxCell id="56" value="" style="group" parent="1" vertex="1" connectable="0">
                    <mxGeometry x="120" y="50" width="480" height="20" as="geometry"/>
                </mxCell>
                <mxCell id="2" value="" style="rounded=1;whiteSpace=wrap;html=1;fillColor=#f8cecc;strokeColor=#b85450;" parent="56" vertex="1">
                    <mxGeometry width="40" height="20" as="geometry"/>
                </mxCell>
                <mxCell id="3" value="" style="rounded=1;whiteSpace=wrap;html=1;fillColor=#ffe6cc;strokeColor=#d79b00;" parent="56" vertex="1">
                    <mxGeometry x="100" width="40" height="20" as="geometry"/>
                </mxCell>
                <mxCell id="4" value="" style="rounded=1;whiteSpace=wrap;html=1;fillColor=#dae8fc;strokeColor=#6c8ebf;" parent="56" vertex="1">
                    <mxGeometry x="200" width="40" height="20" as="geometry"/>
                </mxCell>
                <mxCell id="5" value="" style="rounded=1;whiteSpace=wrap;html=1;fillColor=#d5e8d4;strokeColor=#82b366;" parent="56" vertex="1">
                    <mxGeometry x="300" width="40" height="20" as="geometry"/>
                </mxCell>
                <mxCell id="6" value="" style="rounded=1;whiteSpace=wrap;html=1;" parent="56" vertex="1">
                    <mxGeometry x="400" width="40" height="20" as="geometry"/>
                </mxCell>
                <mxCell id="7" value="&lt;font color=&quot;#b3b3b3&quot;&gt;常用&lt;/font&gt;" style="text;html=1;resizable=0;autosize=1;align=center;verticalAlign=middle;points=[];fillColor=none;strokeColor=none;rounded=0;" parent="56" vertex="1">
                    <mxGeometry x="40" width="40" height="20" as="geometry"/>
                </mxCell>
                <mxCell id="8" value="&lt;font color=&quot;#b3b3b3&quot;&gt;用过&lt;/font&gt;" style="text;html=1;resizable=0;autosize=1;align=center;verticalAlign=middle;points=[];fillColor=none;strokeColor=none;rounded=0;" parent="56" vertex="1">
                    <mxGeometry x="140" width="40" height="20" as="geometry"/>
                </mxCell>
                <mxCell id="9" value="&lt;font color=&quot;#b3b3b3&quot;&gt;忘了&lt;/font&gt;" style="text;html=1;resizable=0;autosize=1;align=center;verticalAlign=middle;points=[];fillColor=none;strokeColor=none;rounded=0;" parent="56" vertex="1">
                    <mxGeometry x="240" width="40" height="20" as="geometry"/>
                </mxCell>
                <mxCell id="10" value="&lt;font color=&quot;#b3b3b3&quot;&gt;在学&lt;/font&gt;" style="text;html=1;resizable=0;autosize=1;align=center;verticalAlign=middle;points=[];fillColor=none;strokeColor=none;rounded=0;" parent="56" vertex="1">
                    <mxGeometry x="340" width="40" height="20" as="geometry"/>
                </mxCell>
                <mxCell id="11" value="&lt;font color=&quot;#b3b3b3&quot;&gt;后学&lt;/font&gt;" style="text;html=1;resizable=0;autosize=1;align=center;verticalAlign=middle;points=[];fillColor=none;strokeColor=none;rounded=0;" parent="56" vertex="1">
                    <mxGeometry x="440" width="40" height="20" as="geometry"/>
                </mxCell>
                <mxCell id="57" value="" style="group" parent="1" vertex="1" connectable="0">
                    <mxGeometry x="120" y="80" width="270" height="60" as="geometry"/>
                </mxCell>
                <mxCell id="14" value="&lt;font color=&quot;#b3b3b3&quot;&gt;语言&lt;/font&gt;" style="html=1;fontColor=#FF3333;fontStyle=1;align=left;verticalAlign=top;spacing=0;labelBorderColor=none;fillColor=none;dashed=1;strokeWidth=2;strokeColor=#B3B3B3;spacingLeft=4;spacingTop=-3;" parent="57" vertex="1">
                    <mxGeometry width="270" height="60" as="geometry"/>
                </mxCell>
                <mxCell id="15" value="&lt;font color=&quot;#000000&quot;&gt;&lt;b&gt;C#&lt;/b&gt;&lt;/font&gt;" style="rounded=1;whiteSpace=wrap;html=1;fillColor=#f8cecc;strokeColor=#b85450;" parent="57" vertex="1">
                    <mxGeometry x="40" y="20" width="40" height="20" as="geometry"/>
                </mxCell>
                <mxCell id="16" value="&lt;font color=&quot;#000000&quot;&gt;&lt;b&gt;Java&lt;/b&gt;&lt;/font&gt;" style="rounded=1;whiteSpace=wrap;html=1;fillColor=#ffe6cc;strokeColor=#d79b00;" parent="57" vertex="1">
                    <mxGeometry x="90" y="20" width="40" height="20" as="geometry"/>
                </mxCell>
                <mxCell id="17" value="&lt;font color=&quot;#000000&quot;&gt;&lt;b&gt;JS/TS&lt;/b&gt;&lt;/font&gt;" style="rounded=1;whiteSpace=wrap;html=1;fillColor=#ffe6cc;strokeColor=#d79b00;" parent="57" vertex="1">
                    <mxGeometry x="140" y="20" width="50" height="20" as="geometry"/>
                </mxCell>
                <mxCell id="18" value="&lt;font color=&quot;#000000&quot;&gt;&lt;b&gt;Python&lt;/b&gt;&lt;/font&gt;" style="rounded=1;whiteSpace=wrap;html=1;fillColor=#dae8fc;strokeColor=#6c8ebf;" parent="57" vertex="1">
                    <mxGeometry x="200" y="20" width="50" height="20" as="geometry"/>
                </mxCell>
                <mxCell id="58" value="" style="group" parent="1" vertex="1" connectable="0">
                    <mxGeometry x="400" y="80" width="240" height="60" as="geometry"/>
                </mxCell>
                <mxCell id="19" value="&lt;font color=&quot;#b3b3b3&quot;&gt;容器&lt;/font&gt;" style="html=1;fontColor=#FF3333;fontStyle=1;align=left;verticalAlign=top;spacing=0;labelBorderColor=none;fillColor=none;dashed=1;strokeWidth=2;strokeColor=#B3B3B3;spacingLeft=4;spacingTop=-3;" parent="58" vertex="1">
                    <mxGeometry width="240" height="60" as="geometry"/>
                </mxCell>
                <mxCell id="20" value="&lt;font color=&quot;#000000&quot;&gt;&lt;b&gt;Docker&lt;/b&gt;&lt;/font&gt;" style="rounded=1;whiteSpace=wrap;html=1;fillColor=#f8cecc;strokeColor=#b85450;" parent="58" vertex="1">
                    <mxGeometry x="40" y="20" width="50" height="20" as="geometry"/>
                </mxCell>
                <mxCell id="21" value="&lt;font color=&quot;#000000&quot;&gt;&lt;b&gt;k3s&lt;/b&gt;&lt;/font&gt;" style="rounded=1;whiteSpace=wrap;html=1;fillColor=#ffe6cc;strokeColor=#d79b00;glass=0;shadow=0;sketch=0;" parent="58" vertex="1">
                    <mxGeometry x="100" y="20" width="40" height="20" as="geometry"/>
                </mxCell>
                <mxCell id="22" value="&lt;b&gt;k8s&lt;/b&gt;" style="rounded=1;whiteSpace=wrap;html=1;" parent="58" vertex="1">
                    <mxGeometry x="150" y="20" width="40" height="20" as="geometry"/>
                </mxCell>
                <mxCell id="59" value="" style="group" parent="1" vertex="1" connectable="0">
                    <mxGeometry x="120" y="160" width="520" height="60" as="geometry"/>
                </mxCell>
                <mxCell id="23" value="&lt;font color=&quot;#b3b3b3&quot;&gt;前端&lt;/font&gt;" style="html=1;fontColor=#FF3333;fontStyle=1;align=left;verticalAlign=top;spacing=0;labelBorderColor=none;fillColor=none;dashed=1;strokeWidth=2;strokeColor=#B3B3B3;spacingLeft=4;spacingTop=-3;" parent="59" vertex="1">
                    <mxGeometry width="520" height="60" as="geometry"/>
                </mxCell>
                <mxCell id="24" value="&lt;font color=&quot;#000000&quot;&gt;&lt;b&gt;winform&lt;/b&gt;&lt;/font&gt;" style="rounded=1;whiteSpace=wrap;html=1;fillColor=#ffe6cc;strokeColor=#d79b00;" parent="59" vertex="1">
                    <mxGeometry x="40" y="20" width="60" height="20" as="geometry"/>
                </mxCell>
                <mxCell id="25" value="&lt;font color=&quot;#000000&quot;&gt;&lt;b&gt;Angular&lt;/b&gt;&lt;/font&gt;" style="rounded=1;whiteSpace=wrap;html=1;fillColor=#ffe6cc;strokeColor=#d79b00;" parent="59" vertex="1">
                    <mxGeometry x="110" y="20" width="60" height="20" as="geometry"/>
                </mxCell>
                <mxCell id="26" value="&lt;font color=&quot;#000000&quot;&gt;&lt;b&gt;Blazor&lt;/b&gt;&lt;/font&gt;" style="rounded=1;whiteSpace=wrap;html=1;fillColor=#dae8fc;strokeColor=#6c8ebf;" parent="59" vertex="1">
                    <mxGeometry x="180" y="20" width="60" height="20" as="geometry"/>
                </mxCell>
                <mxCell id="27" value="&lt;font color=&quot;#000000&quot;&gt;&lt;b&gt;Vue&lt;/b&gt;&lt;/font&gt;" style="rounded=1;whiteSpace=wrap;html=1;fillColor=#dae8fc;strokeColor=#6c8ebf;" parent="59" vertex="1">
                    <mxGeometry x="250" y="20" width="40" height="20" as="geometry"/>
                </mxCell>
                <mxCell id="28" value="&lt;font color=&quot;#000000&quot;&gt;&lt;b&gt;React&lt;/b&gt;&lt;/font&gt;" style="rounded=1;whiteSpace=wrap;html=1;fillColor=#d5e8d4;strokeColor=#82b366;" parent="59" vertex="1">
                    <mxGeometry x="300" y="20" width="50" height="20" as="geometry"/>
                </mxCell>
                <mxCell id="29" value="&lt;b&gt;MAUI&lt;/b&gt;" style="rounded=1;whiteSpace=wrap;html=1;" parent="59" vertex="1">
                    <mxGeometry x="360" y="20" width="50" height="20" as="geometry"/>
                </mxCell>
                <mxCell id="60" value="" style="group" parent="1" vertex="1" connectable="0">
                    <mxGeometry x="380" y="240" width="260" height="60" as="geometry"/>
                </mxCell>
                <mxCell id="33" value="&lt;font color=&quot;#b3b3b3&quot;&gt;消息队列&lt;/font&gt;" style="html=1;fontColor=#FF3333;fontStyle=1;align=left;verticalAlign=top;spacing=0;labelBorderColor=none;fillColor=none;dashed=1;strokeWidth=2;strokeColor=#B3B3B3;spacingLeft=4;spacingTop=-3;" parent="60" vertex="1">
                    <mxGeometry width="260" height="60" as="geometry"/>
                </mxCell>
                <mxCell id="34" value="&lt;font color=&quot;#000000&quot;&gt;&lt;b&gt;RabbitMQ&lt;/b&gt;&lt;/font&gt;" style="rounded=1;whiteSpace=wrap;html=1;fillColor=#ffe6cc;strokeColor=#d79b00;" parent="60" vertex="1">
                    <mxGeometry x="40" y="20" width="70" height="20" as="geometry"/>
                </mxCell>
                <mxCell id="35" value="&lt;b&gt;Kafka&lt;/b&gt;" style="rounded=1;whiteSpace=wrap;html=1;" parent="60" vertex="1">
                    <mxGeometry x="120" y="20" width="50" height="20" as="geometry"/>
                </mxCell>
                <mxCell id="36" value="&lt;b&gt;Redis&lt;/b&gt;" style="rounded=1;whiteSpace=wrap;html=1;" parent="60" vertex="1">
                    <mxGeometry x="180" y="20" width="50" height="20" as="geometry"/>
                </mxCell>
                <mxCell id="61" value="" style="group" parent="1" vertex="1" connectable="0">
                    <mxGeometry x="120" y="240" width="250" height="60" as="geometry"/>
                </mxCell>
                <mxCell id="30" value="&lt;font color=&quot;#b3b3b3&quot;&gt;后端&lt;/font&gt;" style="html=1;fontColor=#FF3333;fontStyle=1;align=left;verticalAlign=top;spacing=0;labelBorderColor=none;fillColor=none;dashed=1;strokeWidth=2;strokeColor=#B3B3B3;spacingLeft=4;spacingTop=-3;" parent="61" vertex="1">
                    <mxGeometry width="250" height="60" as="geometry"/>
                </mxCell>
                <mxCell id="31" value="&lt;font color=&quot;#000000&quot;&gt;&lt;b&gt;Asp.Net Coe&lt;br&gt;WebApi&lt;br&gt;&lt;/b&gt;&lt;/font&gt;" style="rounded=1;whiteSpace=wrap;html=1;fillColor=#f8cecc;strokeColor=#b85450;" parent="61" vertex="1">
                    <mxGeometry x="40" y="15" width="90" height="30" as="geometry"/>
                </mxCell>
                <mxCell id="32" value="&lt;font color=&quot;#000000&quot;&gt;&lt;b&gt;Spring Boot&lt;br&gt;&lt;/b&gt;&lt;/font&gt;" style="rounded=1;whiteSpace=wrap;html=1;fillColor=#dae8fc;strokeColor=#6c8ebf;" parent="61" vertex="1">
                    <mxGeometry x="140" y="15" width="90" height="30" as="geometry"/>
                </mxCell>
                <mxCell id="62" value="" style="group" parent="1" vertex="1" connectable="0">
                    <mxGeometry x="120" y="320" width="360" height="60" as="geometry"/>
                </mxCell>
                <mxCell id="37" value="&lt;font color=&quot;#b3b3b3&quot;&gt;数据库&lt;/font&gt;" style="html=1;fontColor=#FF3333;fontStyle=1;align=left;verticalAlign=top;spacing=0;labelBorderColor=none;fillColor=none;dashed=1;strokeWidth=2;strokeColor=#B3B3B3;spacingLeft=4;spacingTop=-3;" parent="62" vertex="1">
                    <mxGeometry width="360" height="60" as="geometry"/>
                </mxCell>
                <mxCell id="39" value="&lt;font color=&quot;#000000&quot;&gt;&lt;b&gt;Mssql&lt;/b&gt;&lt;/font&gt;" style="rounded=1;whiteSpace=wrap;html=1;fillColor=#ffe6cc;strokeColor=#d79b00;" parent="62" vertex="1">
                    <mxGeometry x="40" y="20" width="50" height="20" as="geometry"/>
                </mxCell>
                <mxCell id="41" value="&lt;font color=&quot;#000000&quot;&gt;&lt;b&gt;Mysql&lt;/b&gt;&lt;/font&gt;" style="rounded=1;whiteSpace=wrap;html=1;fillColor=#ffe6cc;strokeColor=#d79b00;" parent="62" vertex="1">
                    <mxGeometry x="100" y="20" width="50" height="20" as="geometry"/>
                </mxCell>
                <mxCell id="42" value="&lt;font color=&quot;#000000&quot;&gt;&lt;b&gt;Redis&lt;/b&gt;&lt;/font&gt;" style="rounded=1;whiteSpace=wrap;html=1;fillColor=#ffe6cc;strokeColor=#d79b00;" parent="62" vertex="1">
                    <mxGeometry x="160" y="20" width="50" height="20" as="geometry"/>
                </mxCell>
                <mxCell id="43" value="&lt;b&gt;Pgsql&lt;/b&gt;" style="rounded=1;whiteSpace=wrap;html=1;" parent="62" vertex="1">
                    <mxGeometry x="220" y="20" width="50" height="20" as="geometry"/>
                </mxCell>
                <mxCell id="44" value="&lt;b&gt;MongoDB&lt;/b&gt;" style="rounded=1;whiteSpace=wrap;html=1;" parent="62" vertex="1">
                    <mxGeometry x="280" y="20" width="70" height="20" as="geometry"/>
                </mxCell>
                <mxCell id="63" value="" style="group" parent="1" vertex="1" connectable="0">
                    <mxGeometry x="490" y="320" width="150" height="60" as="geometry"/>
                </mxCell>
                <mxCell id="45" value="&lt;font color=&quot;#b3b3b3&quot;&gt;系统&lt;/font&gt;" style="html=1;fontColor=#FF3333;fontStyle=1;align=left;verticalAlign=top;spacing=0;labelBorderColor=none;fillColor=none;dashed=1;strokeWidth=2;strokeColor=#B3B3B3;spacingLeft=4;spacingTop=-3;" parent="63" vertex="1">
                    <mxGeometry width="150" height="60" as="geometry"/>
                </mxCell>
                <mxCell id="46" value="&lt;font color=&quot;#000000&quot;&gt;&lt;b&gt;Linux&lt;/b&gt;&lt;/font&gt;" style="rounded=1;whiteSpace=wrap;html=1;fillColor=#ffe6cc;strokeColor=#d79b00;" parent="63" vertex="1">
                    <mxGeometry x="30" y="20" width="40" height="20" as="geometry"/>
                </mxCell>
                <mxCell id="47" value="&lt;font color=&quot;#000000&quot;&gt;&lt;b&gt;Windows&lt;/b&gt;&lt;/font&gt;" style="rounded=1;whiteSpace=wrap;html=1;fillColor=#ffe6cc;strokeColor=#d79b00;" parent="63" vertex="1">
                    <mxGeometry x="80" y="20" width="60" height="20" as="geometry"/>
                </mxCell>
                <mxCell id="64" value="" style="group" parent="1" vertex="1" connectable="0">
                    <mxGeometry x="120" y="400" width="520" height="60" as="geometry"/>
                </mxCell>
                <mxCell id="48" value="&lt;font color=&quot;#b3b3b3&quot;&gt;其他/杂&lt;/font&gt;" style="html=1;fontColor=#FF3333;fontStyle=1;align=left;verticalAlign=top;spacing=0;labelBorderColor=none;fillColor=none;dashed=1;strokeWidth=2;strokeColor=#B3B3B3;spacingLeft=4;spacingTop=-3;" parent="64" vertex="1">
                    <mxGeometry width="520" height="60" as="geometry"/>
                </mxCell>
                <mxCell id="49" value="&lt;font color=&quot;#000000&quot;&gt;&lt;b&gt;CI/CD&lt;/b&gt;&lt;/font&gt;" style="rounded=1;whiteSpace=wrap;html=1;fillColor=#ffe6cc;strokeColor=#d79b00;" parent="64" vertex="1">
                    <mxGeometry x="40" y="20" width="50" height="20" as="geometry"/>
                </mxCell>
                <mxCell id="50" value="&lt;font color=&quot;#000000&quot;&gt;&lt;b&gt;Git&lt;/b&gt;&lt;/font&gt;" style="rounded=1;whiteSpace=wrap;html=1;fillColor=#ffe6cc;strokeColor=#d79b00;" parent="64" vertex="1">
                    <mxGeometry x="100" y="20" width="40" height="20" as="geometry"/>
                </mxCell>
                <mxCell id="51" value="&lt;font color=&quot;#000000&quot;&gt;&lt;b&gt;Shell&lt;/b&gt;&lt;/font&gt;" style="rounded=1;whiteSpace=wrap;html=1;fillColor=#ffe6cc;strokeColor=#d79b00;" parent="64" vertex="1">
                    <mxGeometry x="150" y="20" width="50" height="20" as="geometry"/>
                </mxCell>
                <mxCell id="52" value="&lt;font color=&quot;#000000&quot;&gt;&lt;b&gt;Frp&lt;/b&gt;&lt;/font&gt;" style="rounded=1;whiteSpace=wrap;html=1;fillColor=#ffe6cc;strokeColor=#d79b00;" parent="64" vertex="1">
                    <mxGeometry x="210" y="20" width="40" height="20" as="geometry"/>
                </mxCell>
                <mxCell id="53" value="&lt;font color=&quot;#000000&quot;&gt;&lt;b&gt;Kuboard&lt;/b&gt;&lt;/font&gt;" style="rounded=1;whiteSpace=wrap;html=1;fillColor=#d5e8d4;strokeColor=#82b366;" parent="64" vertex="1">
                    <mxGeometry x="260" y="20" width="60" height="20" as="geometry"/>
                </mxCell>
                <mxCell id="54" value="&lt;font color=&quot;#000000&quot;&gt;&lt;b&gt;Kong&lt;/b&gt;&lt;/font&gt;" style="rounded=1;whiteSpace=wrap;html=1;fillColor=#d5e8d4;strokeColor=#82b366;" parent="64" vertex="1">
                    <mxGeometry x="330" y="20" width="60" height="20" as="geometry"/>
                </mxCell>
                <mxCell id="55" value="&lt;b&gt;Apisix&lt;/b&gt;" style="rounded=1;whiteSpace=wrap;html=1;" parent="64" vertex="1">
                    <mxGeometry x="400" y="20" width="60" height="20" as="geometry"/>
                </mxCell>
            </root>
        </mxGraphModel>
    </diagram>
</mxfile>